<svg xmlns="http://www.w3.org/2000/svg" xmlns:xlink="http://www.w3.org/1999/xlink" width="1024" height="1024">
	<path fill="#2DD7FF" transform="scale(2 2)" d="M257.086 88.4101C249.342 88.9554 244.339 85.4855 238.136 81.4093L228.125 75.2624C219.722 70.4841 186.529 59.1513 205.8 47.1031C211.519 43.528 218.217 41.066 224.235 37.9705L237.975 30.4532C243.473 27.3303 249.036 23.7459 255.249 22.2983C260.281 21.6735 268.055 27.0879 272.314 29.3807L301 44.4483C309.94 48.7179 318.585 55.5873 306.375 63.0063C303.519 64.7415 300.443 66.1774 297.469 67.7011L272.324 81.5427C267.478 84.3539 262.775 87.7075 257.086 88.4101Z"/>
	<path fill="#2DD7FF" transform="scale(2 2)" d="M397.595 416.838L280.769 477.342C276.14 479.747 271.687 482.496 266.82 484.413C249.935 491.063 241.042 482.513 227.223 475.349L124.496 421.671C106.705 412.634 102.522 412.909 102.545 390.126L102.634 302.532C101.886 301.275 94.878 298.156 93.2277 297.277L59.658 279.759C44.7934 272.269 38.0235 271.555 38.0048 252.038L38.0097 216.514C38.014 212.263 37.8193 207.899 38.3079 203.675C40.7991 204.891 43.4702 205.752 46 207.03L117.837 245.276C148.313 261.372 160.909 270.556 160.954 306.244L160.883 375.602C162.341 376.83 165.754 377.985 167.619 378.974L218.117 405.597C219.47 406.277 220.7 406.529 221.864 407.572L221.89 305.267C221.885 301.924 222.261 297.918 221.534 294.664C215.543 267.854 208.016 259.68 183.23 246.536L58.9092 179.218C44.6839 171.344 38.0024 169.976 37.9894 151.029L38 117.616C38.026 94.7741 39.6328 90.8987 61.107 78.845L102.037 55.6796C106.702 53.0647 110.807 49.7323 116.275 49.0922C122.03 49.3315 126.609 52.7226 131.552 55.3497L232.397 110.545C238.623 113.977 244.93 117.726 251.476 120.505C256.765 122.752 257.835 122.071 263 119.482L378.96 56.2125C395.645 47.1455 396.22 47.2024 411.434 56.2993L451.398 79.2138C469.133 89.3185 473.911 93.6745 473.952 114.098L474.031 157.031C473.891 169.285 466.367 172.133 457.5 176.737L338.653 241.003C314.382 254.174 297.326 260.999 290.818 291.056C289.598 296.686 289.955 302.664 289.956 308.388L289.9 406.668L291.061 406.335C292.966 405.774 294.758 404.775 296.524 403.878L348.088 376.881C353.028 374.538 351.125 375.905 351.133 369.354L351.15 302.256C351.2 266.704 369.625 258.016 397.997 242.658L460.186 209.756C463.776 207.805 467.675 205.275 471.595 204.143L473.729 203.521C474.11 206.485 473.943 209.657 473.945 212.646L473.931 247.708C473.91 265.451 473.681 269.15 458.075 276.723L412.593 300.154C408.816 302.124 409.209 301.21 409.254 305.591L409.351 392.179C409.38 395.01 409.69 398.09 409.344 400.884L408.558 404.726C406.758 410.661 402.858 414.011 397.595 416.838ZM119.295 112.709L98.9881 123.565C95.2889 125.564 91.3298 127.305 87.8384 129.653C93.1599 133.186 99.2621 135.831 104.837 138.985L212.877 197.987C242.085 213.793 253.036 223.449 283.691 206.47L393.52 146.106L422.577 129.483L393.261 112.843C383.666 117.146 374.519 122.896 365.235 127.859L278.532 175.1C256.374 187.914 252.492 186.46 232.155 174.885L119.295 112.709Z"/>
</svg>