<?xml version="1.0" encoding="utf-8" ?>
<svg xmlns="http://www.w3.org/2000/svg" xmlns:xlink="http://www.w3.org/1999/xlink" width="512" height="512">
	<path fill="#EBF2FA" d="M198.243 214.798C200.915 215.416 204.048 217.117 206.418 218.527C207.307 219.056 208.239 219.567 208.515 220.625C207.567 223.061 202.62 224.683 200.44 226.028C199.889 226.368 199.501 226.479 198.875 226.618L198 226.846C195.282 225.787 191.961 223.846 189.589 222.15C188.84 221.614 188.446 221.285 188.32 220.375C189.264 219.209 190.583 218.608 191.875 217.893C193.947 216.748 195.985 215.532 198.243 214.798Z"/>
	<path fill="#427AA1" d="M337.839 233.625C338.116 233.648 338.335 233.768 338.589 233.875L338.698 271.681L334.375 271.649L333.65 271.621C333.533 271.456 333.37 271.315 333.3 271.125C333.114 270.619 333.212 269.495 333.186 268.897L333.094 261.324L333.129 233.765L337.839 233.625Z"/>
	<path fill="#427AA1" d="M353.969 244.375L358.786 244.359L354.96 262.066C354.282 265.093 353.308 273.164 351.396 275.215L351.183 275.433C349.611 277.092 348.025 277.983 345.746 278.211C344.744 278.311 343.917 278.37 343.125 277.733C342.819 276.479 342.829 275.368 342.872 274.095L348.088 273.517L346.445 266.309L341.668 244.668L346.799 244.544C347.78 250.369 348.481 256.781 350.42 262.365C350.918 261.139 350.929 259.428 351.127 258.098L352.407 250.048C352.651 248.459 352.788 246.766 353.197 245.216C353.367 244.569 353.428 244.689 353.969 244.375Z"/>
	<path fill="#427AA1" d="M302.807 244.296C303.916 244.172 305.178 244.11 306.25 244.479C307.207 244.808 307.783 245.467 308.189 246.366L308.328 246.69C309.683 249.764 309.078 254.563 309.058 257.881L308.903 271.859L303.434 271.924C303.045 266.733 303.289 261.402 303.29 256.189C303.29 254.201 303.701 250.656 302.875 248.879L302.477 248.741C301.479 248.44 300.203 248.861 299.314 249.328L299.125 249.432C298.76 249.814 298.519 250.219 298.452 250.75C298.16 253.052 298.374 255.63 298.376 257.962L298.31 271.92L292.891 271.748L292.881 244.424C294.143 244.42 296.633 244.178 297.75 244.556C298.09 244.671 298.555 245.068 298.875 245.269L302.807 244.296Z"/>
	<path fill="#427AA1" d="M281.206 243.846C282.514 243.823 284.671 244.303 285.69 245.115C286.942 246.113 287.583 247.39 287.961 248.922C288.564 251.362 288.345 254.214 288.387 256.716C288.472 261.691 288.441 266.675 288.928 271.631L284.375 271.521C283.765 270.973 283.721 270.412 283.569 269.625L283.5 269.25L283.125 269.132C282.526 269.89 281.926 270.716 281.07 271.197C279.698 271.969 277.992 272.197 276.49 271.659C275.15 271.178 273.972 270.016 273.381 268.743L272.749 267.277C272.476 265.214 272.617 263.033 273.419 261.1C274.863 257.619 279.783 255.924 283.017 254.515C283.236 253.594 282.878 249.964 282.403 249.121C282.123 248.625 281.546 248.407 281 248.327C280.172 248.206 279.781 248.465 279.125 248.913C278.381 250.396 278.301 252.073 278.106 253.697C276.659 253.611 273.906 253.792 272.821 252.875C272.673 250.948 273.068 248.055 274.355 246.526C276.273 244.245 278.391 244.089 281.206 243.846ZM282.25 258.625C280.798 259.432 278.822 261.158 278.303 262.798C277.991 263.781 278.197 265.599 278.693 266.5C278.858 266.8 278.909 266.823 279.125 267.026C280.259 267.102 281.183 266.7 282.045 265.961C282.698 265.401 282.809 264.539 282.856 263.704L282.805 259C282.39 258.636 282.595 258.723 282.25 258.625Z"/>
	<path fill="#427AA1" d="M313.249 233.772L318.332 233.739L318.395 254.796L325.263 244.59C326.993 244.312 328.921 244.502 330.678 244.534C329.152 248.156 326.642 251.271 325.027 254.811C325.022 254.822 324.765 255.423 324.773 255.496C324.939 256.991 326.371 259.266 326.939 260.75L330.336 270.625L330.404 271.375C329.322 271.907 326.774 271.61 325.504 271.614C324.67 270.108 324.145 268.334 323.541 266.719L320.343 258.309C319.735 259.276 318.991 260.385 318.682 261.486C318.385 262.546 318.492 263.938 318.476 265.046L318.355 271.714L313.088 271.692L313.249 233.772Z"/>
	<path fill="#427AA1" d="M251.051 233.625C252.977 233.519 254.945 233.58 256.875 233.6C259.746 233.63 262.939 233.525 265.5 235.026C267.098 235.963 268.57 237.778 269.013 239.597L269.078 239.875C269.526 241.599 269.598 243.445 269.375 245.216C269.013 248.098 267.766 249.628 265.528 251.306C267.013 252.152 268.227 253.095 269.036 254.655C271.004 258.452 270.642 263.415 269.277 267.366L268.125 268.733C267.26 269.627 266.108 270.461 264.943 270.91C263.52 271.458 261.445 271.354 259.915 271.379L250.327 271.48L250.229 244.754L250.227 237.636C250.227 236.425 250.1 235.106 250.375 233.922L251.051 233.625ZM255.942 253.692L255.948 267.096C257.425 267.495 261.398 267.174 262.773 266.318L263.379 265.875C264.769 263.785 265.098 260.681 264.528 258.234C264.185 256.761 263.293 255.806 262.285 254.741C260.118 254.083 258.196 253.847 255.942 253.692ZM255.948 238.215L256.058 249.107C258.298 249.029 261.172 249.255 263.058 247.869C264.181 245.899 264.71 243.607 264.106 241.352C263.889 240.542 263.405 239.5 262.644 239.069C260.852 238.055 257.983 238.436 255.948 238.215Z"/>
	<path fill="#EBF2FA" d="M174.357 219.625C176.738 220.112 179.48 222.038 181.601 223.225L192.422 229.174C194.425 230.266 196.325 231.496 198.44 232.374L220.014 220.734C221.037 220.135 222.124 219.713 223.241 219.326L228.992 222.504L234.25 225.634C235.062 226.08 235.993 226.723 236.408 227.59L236.589 228C237.065 229.014 236.946 230.464 236.982 231.583C237.073 234.439 237.313 237.374 236.771 240.195C236.24 240.773 235.695 241.469 234.967 241.798L231.245 243.743L230.5 244.119C229.953 244.467 229.404 244.644 228.872 244.988C228.36 245.319 228.647 245.167 228.133 245.43L226.815 246.122L221.344 249.088L217.5 251.121L217.125 251.372L213.499 253.248L212.875 253.62C212.455 253.804 212.159 253.841 211.758 254.105L210.133 255.091C208.649 256.059 207.042 257.028 206.125 258.608C205.622 259.474 205.445 260.339 205.109 261.25C204.44 263.063 204.79 265.558 204.804 267.5L204.669 278.572C204.628 279.534 204.761 280.515 204.655 281.469C204.604 281.923 204.531 281.636 204.875 282.122C205.398 281.596 205.891 281.592 206.502 281.247L214.867 276.838L214.896 267.017C214.895 265.566 214.746 263.915 214.968 262.488L215.044 262.03C215.138 261.302 215.22 260.798 215.561 260.131L215.759 259.761C215.963 259.367 216.131 259.032 216.4 258.676L216.625 258.384C217.411 257.144 218.358 256.39 219.597 255.624L227.844 251.056C230.878 249.4 233.779 247.705 237.056 246.56L237.109 253.549C237.109 254.387 237.258 255.569 236.991 256.34C236.83 256.805 236.876 256.473 236.847 257.102L236.84 257.5C236.208 258.448 235.648 259.168 234.614 259.693C234.145 259.931 233.708 260.286 233.242 260.499C231.715 261.195 230.192 262.211 228.61 262.75C227.58 263.1 226.585 263.697 225.612 264.19L225.76 275.193C225.791 277.039 225.983 279.066 225.733 280.888L225.699 281.125C225.639 281.651 225.611 282.232 225.434 282.736C225.082 283.739 224.071 284.309 223.155 284.697C222.629 284.919 222.164 285.192 221.675 285.484L221.669 285.548L221.25 285.74C220.867 285.894 220.599 286.028 220.248 286.247L220.127 286.53C219.288 286.693 218.826 286.864 218.125 287.371L218.128 287.563C217.599 287.622 217.75 287.555 217.39 287.721C216.929 287.935 217.314 287.785 216.719 288.001C216.201 288.189 216.176 288.426 215.882 288.875L215.595 288.634C215.099 288.819 214.471 289.083 214.121 289.5L213.875 289.873L213.625 289.664C212.598 290.191 211.399 290.661 210.461 291.319L210.208 291.499L207.5 292.865L206.748 293.247C206.307 293.429 206.021 293.599 205.625 293.872L205.625 294.113C205.071 294.128 205.364 294.089 204.751 294.259L204.641 294.625L203.75 294.858L203.625 295.101C203.003 295.225 202.56 295.5 202 295.768C201.274 296.115 200.721 296.58 199.91 296.681L199.5 296.728C199.075 296.797 198.901 296.857 198.451 296.793L198.039 296.719C196.223 296.404 194.621 295.446 193 294.617L184.874 290.3L180.622 288.051L178.012 286.735L175.359 285.358C174.944 285.101 175.088 285.168 174.721 284.993L173.75 284.495C173.079 284.156 172.495 283.818 171.875 283.389C171.657 282.933 171.488 282.599 171.424 282.092C170.695 276.315 171.079 270.098 171.168 264.25L170.75 264.103L164.263 260.742C163.63 260.438 163.109 260.081 162.506 259.744C161.776 259.336 161.151 258.91 160.462 258.442L160.288 258.326C159.537 254.64 159.956 250.357 160.058 246.606L177.194 255.425C179.63 256.964 180.726 258.465 181.612 261.125C181.947 262.131 181.743 263.092 181.975 264.122C182.264 265.412 182.098 266.955 182.101 268.287L182.113 276.777C184.35 277.952 187.224 279.111 189.263 280.581C189.6 280.824 189.416 280.718 189.857 280.94L192.174 282.116L192.132 269.834C192.133 266.821 192.575 263.329 191.446 260.5L190.699 258.75C189.682 256.38 185.563 254.408 183.372 253.298L179.86 251.413L172.509 247.487L169.265 245.739L167.112 244.543C166.114 244.047 164.882 243.575 163.986 242.921C163.16 242.318 162.139 241.796 161.254 241.248L160.945 241.062C160.266 240.598 160.004 239.544 159.934 238.768C159.723 236.409 159.864 233.911 159.896 231.542C159.913 230.234 159.742 228.121 160.704 227.103L160.939 226.875C163.121 224.663 171.303 219.958 174.357 219.625ZM174.085 231.125C172.908 231.987 171.114 233.09 169.718 233.471L169.71 233.806C170.163 233.962 170.31 233.935 170.609 234.316C171.167 235.025 172.205 235.347 172.99 235.762L177.328 238.134L192.607 246.324C193.178 246.606 193.678 246.964 194.263 247.246C194.854 247.532 195.365 247.813 195.994 248.027L196.25 248.121C197.619 248.589 199.703 248.608 201.026 248.028L201.398 247.887L202.5 247.383L202.831 247.224L216.034 240.059C218.093 238.903 220.343 237.393 222.522 236.534L225.819 234.516L226.361 233.875L226.107 233.5L225.875 232.873L225.54 232.746C225.11 232.569 224.868 232.359 224.485 232.119L223.765 231.739L222.507 231.024L219.25 232.863C216.622 234.254 213.546 235.722 211.125 237.38C210.751 237.636 210.493 237.684 210.107 237.875L205.39 240.418C203.676 241.278 202.139 242.439 200.326 243.119C199.389 243.47 200.66 242.972 199.657 243.492C199.136 243.762 197.752 243.696 197.212 243.475L197 243.366L196.522 243.224L192.753 241.243L184 236.36L181.75 235.119L176.535 232.215L175.371 231.468C174.894 231.144 174.646 231.093 174.085 231.125Z"/>
</svg>
